<svg width="39" height="39" viewBox="0 0 39 39" fill="none" xmlns="http://www.w3.org/2000/svg">
<path d="M22.1545 0.0524612C21.4134 0.141849 20.734 0.427892 20.2752 0.839078C19.8253 1.23239 19.4282 1.21451 18.5283 0.758628C15.7049 -0.680522 13.4286 0.0882169 11.3817 3.19893C10.8435 4.00342 10.0141 5.63922 9.7847 6.34539C9.60824 6.87278 9.54648 6.92641 9.08769 6.92641C6.34373 6.92641 4.04975 9.11642 2.55867 13.1389C2.02047 14.5691 1.85283 15.3825 1.79107 16.7591C1.70284 18.9223 2.02047 19.8966 3.0704 20.6296C3.66154 21.0497 4.84382 21.4967 5.49673 21.5593C5.82318 21.5861 6.07904 21.6397 6.0614 21.6665C5.64672 22.4531 5.27615 23.356 5.18792 23.7493C5.11734 24.1068 5.03793 24.2677 4.94088 24.2677C4.72913 24.2677 3.33509 24.9292 2.90277 25.2331C2.3028 25.6443 1.19993 26.717 0.758777 27.3159C0.211752 28.0488 0 28.7729 0 29.8902C0 30.6053 0.0352921 30.8288 0.211752 31.1953C0.449973 31.7138 1.44697 32.7149 2.11752 33.0993C2.35574 33.2334 2.62925 33.4479 2.72631 33.573C2.93806 33.8501 3.14981 34.5921 3.22039 35.3519C3.2998 36.1385 3.4145 36.505 3.73213 36.8715C4.13799 37.3452 5.31144 38.105 6.2555 38.5073C7.04957 38.838 7.12898 38.8559 7.79953 38.8201C8.66418 38.7665 9.14062 38.543 11.2228 37.2022C11.8758 36.7731 12.6875 36.3709 13.1198 36.2547C13.4198 36.1742 13.5521 36.1742 13.7815 36.2726C14.1168 36.4156 14.6109 36.8715 14.902 37.2916C15.1932 37.7206 15.4667 37.6849 15.7402 37.2022C15.8637 36.9966 16.0755 36.7195 16.2078 36.5854L16.4549 36.353L22.1457 36.2457L22.6663 36.7999C23.2751 37.4525 23.3809 37.4525 24.1397 36.7821C24.4397 36.5139 24.7573 36.3173 24.9426 36.2815C25.6573 36.1474 26.4955 36.4424 27.4836 37.1843C29.4953 38.686 29.857 38.9006 30.5981 38.99C31.401 39.0793 32.6451 38.5698 34.1009 37.5419C35.142 36.8089 36.386 35.5575 36.5801 35.039C36.7742 34.5116 36.7213 33.6445 36.4566 33.135C36.3507 32.9294 36.289 32.706 36.3154 32.6345C36.3419 32.5629 36.5537 32.3484 36.7742 32.1607C37.7536 31.3651 38.68 30.4534 38.8388 30.1316C39.1476 29.5148 39.0329 28.9606 38.3183 27.5572C37.436 25.8231 36.6684 25.108 35.292 24.7504C34.8244 24.6342 34.0391 24.6253 33.7127 24.7504C33.695 24.7504 33.6421 24.6342 33.5891 24.4912C33.4656 24.0621 33.2627 23.642 32.8833 22.9895C32.5127 22.3459 32.5216 22.2207 32.9539 22.2118C33.3421 22.2118 34.2597 21.6665 34.8067 21.1123C35.8037 20.1022 36.589 18.1446 36.7919 16.187C36.9242 14.8105 36.6684 13.8004 35.592 11.521C35.1155 10.5019 34.542 9.76002 33.5186 8.83932C32.6627 8.07058 31.4187 7.37335 30.8805 7.37335C30.307 7.37335 30.2099 7.30184 30.1041 6.83703C29.9364 6.11298 29.4423 4.93306 28.9835 4.19113C28.1454 2.83243 25.8514 0.758628 24.6338 0.258054C24.0338 0.0167062 23.0721 -0.0637435 22.1545 0.0524612ZM16.252 3.18105C16.8784 3.32407 17.0372 3.44027 17.4607 4.09281C17.9371 4.83473 18.043 5.12077 18.2548 6.19343C18.7753 8.80357 18.2371 10.341 16.3667 11.6819C15.6961 12.1556 15.2285 12.3076 14.2933 12.3523C13.2521 12.4059 12.7845 12.2986 12.5198 11.9143C12.3434 11.6729 12.3169 11.4942 12.2728 10.3053C12.2463 9.56337 12.2551 8.94659 12.2904 8.91977C12.3257 8.89295 12.3522 8.8125 12.3434 8.73205C12.3257 8.64267 12.3434 8.45495 12.3787 8.31193C12.414 8.15997 12.4581 7.88287 12.4845 7.67727C12.5198 7.36441 12.7051 6.81021 13.0933 5.80906C13.1992 5.5409 13.4374 5.12971 13.7374 4.69171C14.055 4.23583 14.9285 3.4224 15.2902 3.2615C15.749 3.0559 15.6873 3.06484 16.252 3.18105ZM24.0956 3.18105C24.775 3.41346 25.7808 4.71853 26.1955 5.92527C26.9013 7.95438 26.9719 9.60806 26.416 11.5567C26.2572 12.0931 26.0455 12.2718 25.4543 12.388C24.5985 12.5489 23.0898 11.8249 22.1281 10.779C21.0693 9.63488 20.734 8.91977 20.7252 7.78454C20.7076 6.31857 21.0693 5.12077 21.8369 4.08387C22.5075 3.18105 23.2398 2.89501 24.0956 3.18105ZM8.16127 11.1634C8.55831 11.2975 8.98181 11.7981 9.45825 12.692C9.73176 13.2104 9.74941 13.273 9.74059 14.2116C9.74059 14.9982 9.70529 15.311 9.54648 15.758C9.05239 17.1703 8.62889 17.7066 7.57895 18.2787C6.5996 18.8061 5.59378 18.6899 5.24968 18.0105C4.87029 17.2776 5.05558 15.6596 5.7173 13.7646C6.22021 12.3344 6.76724 11.4852 7.35838 11.2081C7.7907 11.0115 7.72894 11.0115 8.16127 11.1634ZM31.4981 11.5567C31.7187 11.664 31.9657 11.95 32.3451 12.54C33.9068 14.9445 34.0391 18.1714 32.5745 18.2966C31.6481 18.377 30.5099 17.9212 29.9188 17.2418C29.7247 17.0183 29.4423 16.5803 29.2923 16.2496C29.0541 15.758 29.01 15.5613 29.0012 14.9803C28.9924 13.8272 29.6188 12.0215 30.2099 11.521C30.4305 11.3243 30.5276 11.2975 30.8275 11.3422C31.0305 11.3779 31.3305 11.4763 31.4981 11.5567ZM20.5311 12.4774C21.7399 12.7545 23.8486 13.7557 24.8808 14.5333C26.3366 15.6239 28.0042 17.5547 28.6483 18.8955C28.8512 19.3156 28.8953 19.5391 28.9218 20.3078C28.9482 20.8173 28.9306 21.4162 28.8953 21.6486L28.8335 22.0777L28.613 21.8095C28.1718 21.2732 28.013 20.5045 28.1895 19.7179C28.2601 19.3782 28.1277 19.1726 27.8277 19.1726C27.5277 19.1726 27.4395 19.4676 27.4836 20.3168C27.5277 21.4252 27.6513 21.6933 28.4542 22.5693C30.1217 24.3839 30.3599 24.9381 30.007 26.2432C29.707 27.3516 29.2306 27.9684 28.5071 28.1919C28.0307 28.3349 27.863 28.317 26.866 28.0667C26.3808 27.9416 25.7543 27.8433 25.4808 27.8433C24.9955 27.8433 24.9691 27.8522 24.6779 28.2187C24.5191 28.4332 24.3338 28.7193 24.2809 28.8712C24.1927 29.1126 23.5839 31.7674 23.4956 32.3127C23.4692 32.4378 23.4339 32.5898 23.4162 32.6613C23.3633 32.8132 22.7986 31.7138 22.7192 31.3026C22.6839 31.1417 22.6133 30.9718 22.5692 30.9093C22.5251 30.8556 22.4545 30.6143 22.4281 30.3729C22.3751 29.9886 22.3398 29.9439 22.1281 29.9171C21.934 29.8902 21.8634 29.9349 21.7752 30.1137C21.7222 30.2478 21.5987 30.3461 21.4928 30.3551C21.3869 30.3551 21.3605 30.3819 21.4222 30.4087C21.4752 30.4266 21.5105 30.4891 21.4752 30.5338C21.3781 30.7037 21.1664 30.6053 20.9811 30.3014C20.7252 29.8992 20.487 29.9171 20.2488 30.364C20.1517 30.5517 20.0282 30.7037 19.9753 30.7037C19.9311 30.7037 19.7459 30.5607 19.587 30.3908C19.19 29.9796 18.9871 30.0064 18.7136 30.516C18.5724 30.7662 18.4842 30.8735 18.4577 30.7841C18.3695 30.516 18.0607 30.1584 17.9283 30.1852C17.8577 30.2031 17.7078 30.3729 17.6019 30.5696C17.4872 30.7573 17.3548 30.9361 17.3019 30.954C17.249 30.9718 17.1254 30.8378 17.0196 30.6679C16.9225 30.4891 16.7549 30.3372 16.6666 30.3282C16.5784 30.3193 16.4372 30.3104 16.3578 30.3104C16.1549 30.3014 15.8902 31.0523 15.5991 32.4646C15.5373 32.7775 15.4667 33.0278 15.4402 33.0278C15.3961 33.0278 15.2461 32.3752 15.0785 31.392C14.9462 30.6053 14.1609 28.8802 13.7815 28.5494C13.1639 27.9952 12.3081 27.7807 11.6816 28.022C11.3375 28.1561 10.2435 28.2366 9.75823 28.165C9.21121 28.0757 8.77006 27.6287 8.44361 26.8242C8.17009 26.1449 8.14362 25.5817 8.33773 24.7504C8.56713 23.7493 8.88476 23.2129 9.74059 22.3459C10.2523 21.8364 10.6494 21.3358 10.8346 20.9872C11.0905 20.4955 11.117 20.3704 11.117 19.691C11.117 19.0475 11.0905 18.9044 10.9317 18.7346C10.6229 18.4039 10.5435 18.5379 10.5699 19.3156C10.5876 19.995 10.5788 20.0486 10.2523 20.6028C9.76706 21.4431 9.65236 21.3894 9.68765 20.2989C9.7053 19.5033 9.74059 19.3335 10.0759 18.5111C10.7199 16.9021 11.7258 15.7043 13.3404 14.6138C14.5844 13.7646 15.0079 13.5411 15.9432 13.2193C16.3225 13.0853 16.6755 12.9512 16.7196 12.9065C16.8078 12.835 17.046 12.7724 18.0871 12.5132C18.6959 12.3702 19.9753 12.3433 20.5311 12.4774ZM6.92605 27.289C7.29662 27.5572 7.91423 29.0053 7.92305 29.6221C7.93187 29.8992 8.02893 30.1763 8.26715 30.6053C8.60242 31.1864 8.61124 31.1953 9.34355 31.4903C9.93469 31.7316 10.0935 31.7674 10.1553 31.6691C10.2876 31.4724 10.1994 31.2936 9.90822 31.1506C9.71412 31.0612 9.61707 30.954 9.61707 30.8109C9.61707 30.6411 9.66118 30.6143 10.0053 30.6143C10.4288 30.6143 10.5435 30.7037 10.6405 31.1059C10.6758 31.2579 10.7376 31.4277 10.7905 31.4814C10.9052 31.6423 12.1581 31.6244 13.3139 31.4635C13.8168 31.392 14.258 31.3473 14.2933 31.3741C14.3815 31.4277 14.5844 32.3216 14.5227 32.3752C14.505 32.4021 14.1962 32.4557 13.8345 32.5004C13.1639 32.5808 12.2198 32.8311 11.3817 33.1261C10.8435 33.3227 8.84946 34.4043 8.16127 34.8692C7.57895 35.2714 7.24368 35.2714 6.56431 34.8513C5.9467 34.4759 5.47026 34.0289 5.47026 33.8412C5.47026 33.7608 5.57613 33.5373 5.69083 33.3406C5.96434 32.8937 5.96435 32.7238 5.69966 32.1875C5.57613 31.9462 5.50555 31.6869 5.53202 31.6065C5.55849 31.526 5.85847 31.1774 6.19374 30.8199C6.64372 30.3372 6.80253 30.1226 6.77606 29.9707C6.72312 29.5595 6.44961 29.6846 5.61143 30.516C5.16145 30.9629 4.75559 31.3294 4.70266 31.3294C4.65854 31.3294 4.36738 31.0702 4.07622 30.7573C3.37921 30.0243 3.37038 29.8813 3.97035 28.9874C4.5262 28.1472 4.76442 27.9148 5.47908 27.5304C6.03493 27.2265 6.69665 27.1192 6.92605 27.289ZM34.242 28.165C34.4097 28.2634 34.7361 28.6299 34.9832 29.0142C35.3449 29.5595 35.4155 29.7383 35.4155 30.0601C35.4067 30.6858 35.1332 30.8914 34.2156 30.9718C32.7774 31.1059 32.3275 31.2489 31.701 31.7495C31.154 32.1875 30.9334 32.5361 31.0569 32.7596C31.1099 32.8579 31.1981 32.9384 31.2511 32.9384C31.2952 32.9384 31.5687 32.7238 31.8422 32.4646C32.4333 31.9194 32.9451 31.7048 33.1833 31.9194C33.448 32.1607 33.4744 32.6255 33.245 33.0814C33.0333 33.5283 31.7187 34.8602 31.3657 34.9943C31.0217 35.1284 30.3246 34.7619 29.1424 33.8233C27.6601 32.6523 27.1042 32.4199 25.1985 32.2143C24.6338 32.1518 24.175 32.0803 24.175 32.0445C24.175 32.0087 24.3162 31.535 24.4838 30.9897C24.722 30.2299 24.8367 29.9886 24.9514 29.9886C26.866 29.9618 28.9571 29.8009 29.2659 29.6489C29.3541 29.6042 29.6188 29.4701 29.8658 29.3539C30.1041 29.2377 30.4658 29.0411 30.6599 28.9248C31.2863 28.5315 31.8775 28.2634 32.5392 28.0667C33.2715 27.8522 33.748 27.879 34.242 28.165ZM21.1311 31.3294C21.2281 31.4903 21.5281 31.4188 21.6693 31.1953C21.7487 31.0702 21.8457 30.9718 21.8899 30.9718C21.9693 30.9718 22.4104 31.8925 22.4104 32.0445C22.4104 32.1518 21.2722 32.2143 18.8371 32.268C17.6725 32.2858 16.6313 32.3305 16.5255 32.3663C16.2872 32.4289 16.2696 32.3216 16.4196 31.8568C16.5608 31.4367 16.649 31.3562 16.7813 31.526C16.8431 31.5976 17.0196 31.6869 17.1695 31.7138C17.4607 31.7674 17.646 31.6423 17.7607 31.3026C17.8313 31.1059 17.9724 31.1059 18.043 31.3205C18.0695 31.4098 18.1665 31.5529 18.2548 31.6333C18.4136 31.7763 18.4489 31.7763 18.6959 31.6422C18.8459 31.5707 18.9694 31.4724 18.9694 31.4367C18.9694 31.392 19.0224 31.2936 19.0841 31.2042C19.19 31.0523 19.2253 31.0523 19.4635 31.1774C19.6135 31.2579 19.7812 31.383 19.8429 31.4545C20.037 31.6869 20.187 31.6244 20.3811 31.24L20.5664 30.8735L20.8223 31.0612C20.9634 31.1685 21.1046 31.2847 21.1311 31.3294Z" fill="#5B4B36"/>
<path d="M23.6809 20.4151C23.3898 20.5045 23.0016 20.6564 22.8251 20.7726C22.1369 21.2017 21.5281 22.2475 21.5281 22.9984C21.5281 23.5973 21.8546 24.0889 22.481 24.4554C23.2751 24.9292 23.7515 24.9649 24.7044 24.6342C25.7455 24.2856 26.2837 23.6956 26.4337 22.766C26.5925 21.7738 25.6926 20.5134 24.7309 20.3883C24.5897 20.3704 24.4221 20.3346 24.3515 20.3078C24.2809 20.281 23.9809 20.3346 23.6809 20.4151ZM13.4904 20.4598C13.0139 20.6117 12.7492 20.8263 12.3522 21.3537C11.7963 22.0956 11.5669 23.2398 11.8581 23.8118C12.0346 24.1426 12.8375 24.7415 13.2874 24.8756C13.7903 25.0275 15.202 25.0096 15.5549 24.8577C16.2961 24.5359 16.6666 23.5973 16.5784 22.2654C16.5343 21.6308 16.4902 21.4431 16.349 21.3268C16.2608 21.2464 16.1108 21.0766 16.0314 20.9514C15.7932 20.5581 15.2197 20.3346 14.4609 20.3436C14.0991 20.3525 13.6668 20.3972 13.4904 20.4598ZM18.4665 24.6342C17.9901 24.8756 17.6107 25.4655 17.4254 26.27C17.2578 27.0119 17.3019 27.1907 17.6901 27.3606C18.0166 27.4946 18.1577 27.4678 18.6077 27.155C18.9606 26.9136 19.1988 26.8957 19.7723 27.1013C20.6105 27.4052 20.9811 26.9583 20.6811 25.9929C20.3017 24.7772 19.3488 24.1873 18.4665 24.6342Z" fill="#5B4B36"/>
</svg>
