<svg 
  width="18" 
  height="18" 
  viewBox="0 0 18 18" 
  fill="none" 
  xmlns="http://www.w3.org/2000/svg"
>
  <path 
  d="M0.112575 8.42919C0.183975 8.24522 0.291075 8.07714 0.427675 7.9346L7.93078 0.440774C8.07071 0.301032 8.23681 0.190182 8.41961 0.114554C8.60242 0.0389258 8.79836 0 8.99623 0C9.39585 0 9.7791 0.158551 10.0617 0.440774C10.2016 0.580517 10.3126 0.746416 10.3883 0.928998C10.464 1.11158 10.503 1.30727 10.503 1.5049C10.503 1.90402 10.3442 2.2868 10.0617 2.56902L5.10957 7.49996H16.4994C16.8973 7.49996 17.279 7.65786 17.5605 7.93894C17.8419 8.22001 18 8.60122 18 8.99872C18 9.39622 17.8419 9.77744 17.5605 10.0585C17.279 10.3396 16.8973 10.4975 16.4994 10.4975H5.10957L10.0617 15.4284C10.2023 15.5678 10.314 15.7335 10.3901 15.9162C10.4663 16.0988 10.5056 16.2947 10.5056 16.4925C10.5056 16.6904 10.4663 16.8863 10.3901 17.0689C10.314 17.2516 10.2023 17.4173 10.0617 17.5567C9.92217 17.6971 9.7562 17.8086 9.57333 17.8847C9.39047 17.9608 9.19433 18 8.99623 18C8.79813 18 8.60199 17.9608 8.41912 17.8847C8.23626 17.8086 8.0703 17.6971 7.93078 17.5567L0.427675 10.0628C0.291075 9.92031 0.183975 9.75223 0.112575 9.56825C-0.037525 9.20336 -0.037525 8.79408 0.112575 8.42919Z" 
  fill="currentColor"/>
</svg>
