<svg 
  width="18" 
  height="18" 
  viewBox="0 0 18 18" 
  fill="none" 
  xmlns="http://www.w3.org/2000/svg"
>
  <path 
    d="M17.8874 8.42919C17.816 8.24522 17.7089 8.07714 17.5723 7.9346L10.0692 0.440774C9.92927 0.301032 9.76316 0.190182 9.58036 0.114554C9.39755 0.0389258 9.20161 0 9.00374 0C8.60412 0 8.22087 0.158551 7.9383 0.440774C7.79838 0.580517 7.6874 0.746416 7.61167 0.928998C7.53595 1.11158 7.49698 1.30727 7.49698 1.5049C7.49698 1.90402 7.65573 2.2868 7.9383 2.56902L12.8904 7.49996H1.50062C1.10263 7.49996 0.720944 7.65786 0.439523 7.93894C0.158101 8.22001 0 8.60122 0 8.99872C0 9.39622 0.158101 9.77744 0.439523 10.0585C0.720944 10.3396 1.10263 10.4975 1.50062 10.4975H12.8904L7.9383 15.4284C7.79765 15.5678 7.68601 15.7335 7.60983 15.9162C7.53364 16.0988 7.49442 16.2947 7.49442 16.4925C7.49442 16.6904 7.53364 16.8863 7.60983 17.0689C7.68601 17.2516 7.79765 17.4173 7.9383 17.5567C8.0778 17.6971 8.24377 17.8086 8.42664 17.8847C8.6095 17.9608 8.80564 18 9.00374 18C9.20184 18 9.39798 17.9608 9.58085 17.8847C9.76371 17.8086 9.92968 17.6971 10.0692 17.5567L17.5723 10.0628C17.7089 9.92031 17.816 9.75223 17.8874 9.56825C18.0375 9.20336 18.0375 8.79408 17.8874 8.42919Z"
    fill="currentColor"
  />
</svg>