<svg width="51" height="45" viewBox="0 0 51 45" fill="none" xmlns="http://www.w3.org/2000/svg"><path fill-rule="evenodd" clip-rule="evenodd" d="M19.4465 6.09367C14.644 7.91394 11.811 13.4091 13.8149 21.2538C13.9875 21.9491 15.3005 22.9421 15.4042 23.6041C15.4731 24.2664 14.2985 24.5974 14.2641 25.193C14.2641 25.2551 14.2616 25.3153 14.2568 25.3737C14.13 26.9263 14.2315 28.2314 15.7042 28.7392L28.587 33.1815C28.6453 33.2016 28.6845 33.2565 28.6845 33.3183C28.6845 33.4167 28.5883 33.4864 28.4948 33.4557L13.2189 28.4498C12.09 28.0799 10.8134 28.3825 10.0951 29.3286C9.76363 29.7652 9.484 30.2027 9.28866 30.6548C9.11246 31.0981 8.97831 31.5954 9.00292 32.1036C9.03135 32.6907 9.48488 33.1371 10 33.4201C16.7406 37.1231 27.4406 38.9328 33.8885 38.9966C34.8901 39.0296 35.2356 38.8309 35.5814 38.1359C35.6848 37.9039 35.8232 37.5729 35.9613 37.1756C36.2724 36.3813 36.5831 35.289 36.8596 33.9317C37.1014 32.6078 37.2743 31.0188 37.2051 29.3639C37.2051 28.5033 34.9594 27.8743 35.0283 26.9806C35.063 26.3187 36.8941 25.3917 36.2376 24.1007C34.6831 21.0555 35.1319 18.7382 36.065 16.8846C36.9633 14.9977 38.7944 13.3758 41.5237 11.6215C42.3187 11.0918 42.0765 9.90021 41.1093 9.73488L20.0338 6.02734C19.8264 5.96134 19.6191 6.02767 19.4465 6.09367ZM22.1597 10.394C22.1927 9.79308 21.4996 9.43581 21.0293 9.81135L20.8115 9.98531C20.6659 10.1016 20.4844 10.1595 20.2996 10.1838C19.7924 10.2505 19.3179 10.4896 18.9486 10.8317C18.8409 10.9315 18.713 11.0093 18.5697 11.0413L18.3116 11.0988C17.876 11.1958 17.7198 11.736 18.0364 12.0506C18.1628 12.1762 18.218 12.354 18.2144 12.5322C18.2038 13.0651 18.3761 13.5952 18.7318 14.0074C18.8651 14.1619 18.9524 14.357 18.9347 14.5603C18.8844 15.1376 19.5763 15.469 19.9947 15.0682L20.0698 14.9962C20.2013 14.8703 20.3788 14.8077 20.5604 14.796C21.1355 14.7589 21.6905 14.535 22.1037 14.1535C22.2235 14.0429 22.369 13.9598 22.5306 13.9389C23.0097 13.8768 23.2624 13.3385 23.004 12.9303L22.9906 12.909C22.9103 12.7822 22.8776 12.6324 22.8783 12.4824C22.881 11.9383 22.7119 11.3933 22.3708 10.9698C22.2384 10.8053 22.1481 10.6049 22.1597 10.394ZM20.6903 11.5548C20.7592 11.5548 20.8632 11.5548 20.9321 11.5878C21.4505 11.8198 21.5886 12.4821 21.3123 12.9121C21.0702 13.3754 20.414 13.6074 19.9993 13.2761C19.481 12.9121 19.5502 12.1508 19.9993 11.7868C20.1719 11.6212 20.4485 11.5218 20.6903 11.5548ZM27.6602 15.0122C27.4537 14.6906 27.0289 14.5916 26.7015 14.7888C26.361 14.9938 26.2567 15.4394 26.4708 15.7743L26.6326 16.0275C26.8907 16.4312 26.7397 16.9696 26.3093 17.1803L26.2088 17.2295C25.8553 17.4025 25.7161 17.8344 25.902 18.1813C26.0785 18.5106 26.4838 18.6413 26.8194 18.4771L27.0646 18.3571C27.5085 18.1399 28.0447 18.2881 28.3141 18.7025L28.7806 19.4201C28.9894 19.7413 29.415 19.8392 29.7431 19.6416C30.0841 19.4362 30.19 18.9909 29.9779 18.6541L29.7593 18.307C29.4368 17.7948 29.6302 17.1161 30.1743 16.8508L30.4738 16.7048C30.829 16.5317 30.9691 16.098 30.7824 15.7497C30.6064 15.4215 30.2034 15.2898 29.8676 15.4507L29.2736 15.7353C28.7717 15.9758 28.1693 15.8049 27.8686 15.3366L27.6602 15.0122ZM24.1191 17.8397C24.0372 17.4907 23.6946 17.2685 23.3425 17.3359L23.2815 17.3476C22.7129 17.5134 22.1443 17.764 21.639 18.0992C21.3098 18.3177 21.2929 18.7755 21.5639 19.063C21.8272 19.3422 22.2632 19.3537 22.5896 19.1518C22.8992 18.9602 23.2346 18.8114 23.5843 18.7024C23.9549 18.5869 24.2079 18.2176 24.1191 17.8397ZM20.5657 20.0756C20.2893 19.9211 19.9401 20.016 19.7799 20.2891C19.765 20.3145 19.7521 20.3409 19.7413 20.3682C19.5758 20.7867 19.4276 21.2112 19.2968 21.6408C19.2812 21.6918 19.2707 21.7442 19.265 21.7972L19.2479 21.9568C19.2052 22.3529 19.4954 22.7071 19.8921 22.7433C20.2916 22.7797 20.6339 22.478 20.7007 22.0825C20.7448 21.8212 20.8095 21.5637 20.9077 21.3143C20.9235 21.2741 20.9364 21.2328 20.9484 21.1914C20.9539 21.172 20.9599 21.1529 20.9663 21.1341C21.0944 20.7553 21.0238 20.3316 20.6747 20.1365L20.5657 20.0756ZM20.9039 24.5785C20.7838 24.217 20.4034 24.011 20.035 24.108C19.6385 24.2124 19.3982 24.629 19.5263 25.0184C19.6224 25.3105 19.7364 25.5966 19.9015 25.8586C19.9422 25.9232 19.9796 25.9899 20.0125 26.0589C20.0755 26.1908 20.1459 26.3156 20.2209 26.4361C20.427 26.7673 20.8767 26.8335 21.1956 26.6088C21.5244 26.3771 21.5922 25.9228 21.3823 25.5797C21.2066 25.2922 21.052 24.9889 20.9321 24.6634L20.9039 24.5785ZM23.2463 27.4225C22.9103 27.2209 22.4627 27.2704 22.2241 27.5812C21.9884 27.8882 22.0481 28.3307 22.3793 28.5308C22.8557 28.8187 23.3699 29.0609 23.8871 29.2685C24.2246 29.4041 24.6041 29.2385 24.7505 28.9055C24.9101 28.5424 24.7325 28.1228 24.3662 27.971C23.9759 27.8092 23.5991 27.6342 23.2463 27.4225ZM27.0045 29.0733C26.6714 28.8898 26.262 29.0443 26.1011 29.389C25.9374 29.7398 26.0944 30.1514 26.4302 30.3441C26.7248 30.5131 27.0052 30.7081 27.2511 30.9414C27.5354 31.2111 27.9706 31.3145 28.3022 31.1057C28.6387 30.8939 28.7403 30.4436 28.465 30.1567C28.2875 29.9716 28.0913 29.8002 27.8767 29.6289C27.5986 29.4257 27.3072 29.2402 27.0045 29.0733Z" fill="#372D20"/></svg>
