<svg width="51" height="45" viewBox="0 0 51 45" fill="none" xmlns="http://www.w3.org/2000/svg">
<path d="M23.2944 7.03354C23.2944 6.5824 23.6046 6.18281 24.0664 6.04747C24.5282 5.91213 25.0244 6.07325 25.3001 6.44061L40.7393 27.0641C40.9737 27.3799 41.0012 27.7924 40.8151 28.134C40.629 28.4756 40.2499 28.6882 39.8364 28.6882H24.3972C23.7907 28.6882 23.2944 28.2242 23.2944 27.6571V7.03354ZM20.2686 12.2216C20.7511 12.3441 21.0888 12.7501 21.0888 13.2206V27.6571C21.0888 28.2242 20.5925 28.6882 19.986 28.6882H11.1636C10.7707 28.6882 10.4054 28.4949 10.2124 28.1726C10.0195 27.8504 10.0126 27.4637 10.2056 27.1415L19.0279 12.705C19.2761 12.299 19.7861 12.0992 20.2686 12.2216ZM6.04248 32.0589C5.8426 31.4015 6.37332 30.7506 7.10393 30.7506H43.8961C44.6267 30.7506 45.1574 31.4015 44.9575 32.0589L44.6818 32.9805C43.6066 36.5445 40.1397 39 36.1834 39H14.8166C10.8603 39 7.39341 36.5445 6.31818 32.987L6.04248 32.0653V32.0589Z" fill="#372D20"/>
</svg>
