<svg width="51" height="45" viewBox="0 0 51 45" fill="none" xmlns="http://www.w3.org/2000/svg">
<path d="M17.7857 39H37.0714C38.1382 39 39 38.0783 39 36.9375C39 35.7967 38.1382 34.875 37.0714 34.875V30.576C38.1924 30.1506 39 29.0033 39 27.6562V9.09375C39 7.38574 37.7042 6 36.1071 6H17.7857C14.5915 6 12 8.77148 12 12.1875V32.8125C12 36.2285 14.5915 39 17.7857 39ZM15.8571 32.8125C15.8571 31.6717 16.719 30.75 17.7857 30.75H33.2143V34.875H17.7857C16.719 34.875 15.8571 33.9533 15.8571 32.8125ZM28.3929 16.5188V17.3438C28.3929 17.9109 27.9589 18.375 27.4286 18.375H23.5714C23.0411 18.375 22.6071 17.9109 22.6071 17.3438V16.5188C21.4379 15.7646 20.6786 14.5658 20.6786 13.2188C20.6786 10.9436 22.8362 9.09375 25.5 9.09375C28.1638 9.09375 30.3214 10.9436 30.3214 13.2188C30.3214 14.5658 29.5621 15.7646 28.3929 16.5188ZM24.5357 13.2188C24.5357 12.9452 24.4341 12.6829 24.2533 12.4895C24.0724 12.2961 23.8272 12.1875 23.5714 12.1875C23.3157 12.1875 23.0704 12.2961 22.8896 12.4895C22.7087 12.6829 22.6071 12.9452 22.6071 13.2188C22.6071 13.4923 22.7087 13.7546 22.8896 13.948C23.0704 14.1414 23.3157 14.25 23.5714 14.25C23.8272 14.25 24.0724 14.1414 24.2533 13.948C24.4341 13.7546 24.5357 13.4923 24.5357 13.2188ZM27.4286 14.25C27.6843 14.25 27.9296 14.1414 28.1104 13.948C28.2913 13.7546 28.3929 13.4923 28.3929 13.2188C28.3929 12.9452 28.2913 12.6829 28.1104 12.4895C27.9296 12.2961 27.6843 12.1875 27.4286 12.1875C27.1728 12.1875 26.9276 12.2961 26.7467 12.4895C26.5659 12.6829 26.4643 12.9452 26.4643 13.2188C26.4643 13.4923 26.5659 13.7546 26.7467 13.948C26.9276 14.1414 27.1728 14.25 27.4286 14.25ZM31.9004 20.4182C32.1777 21.0691 31.9065 21.8297 31.3038 22.1262L28.417 23.5312L31.3038 24.9363C31.9125 25.2328 32.1777 25.9934 31.9004 26.6443C31.6232 27.2953 30.9121 27.5789 30.3033 27.2824L25.5 24.9492L20.6967 27.2824C20.0879 27.5789 19.3768 27.2889 19.0996 26.6443C18.8223 25.9998 19.0935 25.2328 19.6962 24.9363L22.583 23.5312L19.6962 22.1262C19.0875 21.8297 18.8223 21.0691 19.0996 20.4182C19.3768 19.7672 20.0879 19.4836 20.6967 19.7801L25.5 22.1133L30.3033 19.7801C30.9121 19.4836 31.6232 19.7736 31.9004 20.4182Z" fill="#372D20"/>
</svg>
