<svg width="93" height="93" viewBox="0 0 93 93" fill="none" xmlns="http://www.w3.org/2000/svg">
<path d="M52.8301 0.1251C51.0627 0.338256 49.4427 1.02036 48.3487 2.00088C47.2756 2.93877 46.3289 2.89613 44.1828 1.80904C37.4502 -1.62278 32.022 0.210363 27.1409 7.62821C25.8575 9.54662 23.8798 13.4474 23.3327 15.1313C22.912 16.3889 22.7647 16.5168 21.6706 16.5168C15.1274 16.5168 9.65711 21.7392 6.10144 31.3312C4.81803 34.7417 4.41828 36.6814 4.27101 39.964C4.06061 45.1224 4.81803 47.4458 7.32173 49.1937C8.73137 50.1955 11.5507 51.2613 13.1076 51.4105C13.886 51.4745 14.4962 51.6024 14.4541 51.6663C13.4652 53.5421 12.5816 55.695 12.3712 56.6329C12.2029 57.4855 12.0135 57.8692 11.7821 57.8692C11.2771 57.8692 7.95291 59.4465 6.92198 60.1713C5.4913 61.1518 2.86136 63.7097 1.80939 65.1378C0.504946 66.8857 0 68.6123 0 71.2767C0 72.982 0.0841581 73.5149 0.504947 74.3888C1.07301 75.6251 3.45047 78.0125 5.04947 78.929C5.61753 79.2488 6.26976 79.7604 6.50119 80.0588C7.00614 80.7196 7.51108 82.4888 7.6794 84.3006C7.86875 86.1764 8.14227 87.0503 8.89969 87.9242C9.8675 89.054 12.6657 90.8658 14.917 91.825C16.8105 92.6137 16.9999 92.6563 18.5989 92.5711C20.6607 92.4432 21.7969 91.9103 26.7622 88.7129C28.3191 87.6898 30.2547 86.7306 31.2857 86.4535C32.001 86.2616 32.3166 86.2616 32.8636 86.4961C33.6631 86.8371 34.8413 87.9242 35.5356 88.9261C36.2299 89.9492 36.8822 89.864 37.5344 88.7129C37.8289 88.2227 38.3339 87.5619 38.6495 87.2421L39.2386 86.6879L52.809 86.4321L54.0503 87.7537C55.5021 89.3098 55.7545 89.3098 57.5639 87.7111C58.2793 87.0716 59.0367 86.6027 59.4785 86.5174C61.1827 86.1977 63.1815 86.9011 65.5379 88.6703C70.3349 92.2513 71.1975 92.7629 72.9648 92.9761C74.8794 93.1892 77.846 91.9742 81.3175 89.5229C83.8001 87.775 86.7667 84.7908 87.2296 83.5545C87.6924 82.2969 87.5662 80.2293 86.935 79.0143C86.6825 78.524 86.5353 77.9912 86.5984 77.8206C86.6615 77.6501 87.1664 77.1385 87.6924 76.6909C90.0278 74.7938 92.2369 72.6196 92.6157 71.8523C93.352 70.3815 93.0785 69.0599 91.3743 65.7133C89.2704 61.5781 87.44 59.8729 84.1578 59.0202C83.0427 58.7431 81.1702 58.7218 80.3917 59.0202C80.3497 59.0202 80.2234 58.7431 80.0972 58.4021C79.8026 57.3789 79.3187 56.3771 78.414 54.8211C77.5304 53.2863 77.5514 52.9879 78.5823 52.9666C79.5081 52.9666 81.6962 51.6663 83.0006 50.3448C85.3781 47.9361 87.2506 43.268 87.7345 38.5998C88.0501 35.3172 87.44 32.9086 84.8731 27.4731C83.737 25.0431 82.3694 23.2739 79.9289 21.0784C77.888 19.2452 74.9215 17.5826 73.6381 17.5826C72.2705 17.5826 72.0391 17.4121 71.7866 16.3037C71.3869 14.5771 70.2086 11.7634 69.1146 9.99424C67.1158 6.75426 61.6456 1.80904 58.7421 0.61536C57.3115 0.0398378 55.0182 -0.152004 52.8301 0.1251ZM38.7547 7.58558C40.2485 7.92663 40.6272 8.20373 41.6371 9.75977C42.7732 11.529 43.0257 12.2111 43.5306 14.7689C44.7719 20.9931 43.4885 24.6594 39.0282 27.8568C37.4292 28.9865 36.3141 29.3488 34.0839 29.4554C31.6013 29.5833 30.4862 29.3275 29.855 28.411C29.4342 27.8354 29.3711 27.4091 29.2659 24.5741C29.2028 22.8049 29.2238 21.3342 29.308 21.2702C29.3921 21.2063 29.4552 21.0144 29.4342 20.8226C29.3921 20.6094 29.4342 20.1618 29.5183 19.8208C29.6025 19.4584 29.7077 18.7976 29.7708 18.3073C29.855 17.5613 30.2968 16.2397 31.2225 13.8524C31.475 13.2129 32.0431 12.2324 32.7584 11.1879C33.5158 10.1008 35.5987 8.1611 36.4614 7.77742C37.5554 7.28716 37.4081 7.30847 38.7547 7.58558ZM57.4587 7.58558C59.0788 8.13978 61.4773 11.2519 62.4661 14.1295C64.1493 18.9681 64.3176 22.9115 62.9921 27.5583C62.6134 28.8373 62.1085 29.2636 60.6988 29.5407C58.658 29.9244 55.0602 28.1978 52.7669 25.7039C50.2422 22.9755 49.4427 21.2702 49.4217 18.5631C49.3796 15.0674 50.2422 12.2111 52.0726 9.73846C53.6716 7.58558 55.4179 6.90348 57.4587 7.58558ZM19.4615 26.6204C20.4083 26.9402 21.4182 28.1339 22.5543 30.2654C23.2065 31.5017 23.2486 31.6509 23.2275 33.8891C23.2275 35.7649 23.1434 36.5109 22.7647 37.5767C21.5865 40.9446 20.5766 42.2235 18.0729 43.5877C15.7375 44.8453 13.339 44.5682 12.5185 42.9482C11.6138 41.2003 12.0556 37.3422 13.6336 32.8233C14.8328 29.4128 16.1373 27.3878 17.5469 26.727C18.5778 26.2581 18.4306 26.2581 19.4615 26.6204ZM75.1108 27.5583C75.6368 27.8141 76.2259 28.4962 77.1306 29.9031C80.8546 35.637 81.1702 43.3319 77.6777 43.6303C75.4685 43.8222 72.7544 42.7351 71.3448 41.1151C70.8819 40.5822 70.2086 39.5377 69.851 38.749C69.2829 37.5767 69.1777 37.1077 69.1567 35.7222C69.1356 32.9725 70.6294 28.6667 72.0391 27.4731C72.5651 27.0041 72.7965 26.9402 73.5118 27.0468C73.9957 27.132 74.7111 27.3665 75.1108 27.5583ZM48.9588 29.7538C51.8412 30.4146 56.8696 32.802 59.3312 34.6564C62.8028 37.257 66.7792 41.8611 68.3151 45.0585C68.799 46.0603 68.9042 46.5932 68.9673 48.4264C69.0304 49.6413 68.9884 51.0695 68.9042 51.6237L68.7569 52.6469L68.2309 52.0074C67.179 50.7284 66.8002 48.8953 67.221 47.0195C67.3894 46.2095 67.0738 45.7193 66.3584 45.7193C65.6431 45.7193 65.4327 46.4227 65.5379 48.4477C65.6431 51.0908 65.9376 51.7303 67.8522 53.8192C71.8287 58.1463 72.3967 59.4679 71.5552 62.5799C70.8398 65.2231 69.7037 66.6939 67.9785 67.2268C66.8423 67.5678 66.4426 67.5252 64.0651 66.9283C62.908 66.6299 61.4142 66.3954 60.7619 66.3954C59.6048 66.3954 59.5416 66.4168 58.8473 67.2907C58.4686 67.8023 58.0268 68.4844 57.9006 68.8467C57.6902 69.4223 56.2384 75.753 56.0281 77.0533C55.9649 77.3517 55.8808 77.714 55.8387 77.8846C55.7125 78.2469 54.3659 75.6251 54.1766 74.6446C54.0924 74.2609 53.9241 73.8559 53.8189 73.7067C53.7137 73.5788 53.5454 73.0033 53.4823 72.4278C53.356 71.5112 53.2719 71.4046 52.7669 71.3407C52.3041 71.2767 52.1358 71.3833 51.9254 71.8096C51.7991 72.1294 51.5046 72.3638 51.2521 72.3851C50.9996 72.3851 50.9365 72.4491 51.0838 72.513C51.21 72.5557 51.2942 72.7049 51.21 72.8115C50.9786 73.2165 50.4736 72.982 50.0318 72.2572C49.4217 71.298 48.8536 71.3407 48.2855 72.4065C48.0541 72.8541 47.7595 73.2165 47.6333 73.2165C47.5281 73.2165 47.0863 72.8754 46.7076 72.4704C45.7608 71.4899 45.2769 71.5538 44.6247 72.7688C44.288 73.3657 44.0776 73.6214 44.0145 73.4083C43.8041 72.7688 43.0678 71.9162 42.7522 71.9801C42.5838 72.0228 42.2262 72.4278 41.9737 72.8967C41.7002 73.3443 41.3846 73.7707 41.2584 73.8133C41.1321 73.8559 40.8376 73.5362 40.5851 73.1312C40.3537 72.7049 39.9539 72.3425 39.7435 72.3212C39.5331 72.2999 39.1965 72.2786 39.0071 72.2786C38.5232 72.2572 37.892 74.0478 37.1977 77.4156C37.0505 78.1617 36.8822 78.7585 36.819 78.7585C36.7138 78.7585 36.3562 77.2025 35.9564 74.8578C35.6408 72.982 33.7683 68.8681 32.8636 68.0794C31.3909 66.7578 29.35 66.2462 27.8562 66.8218C27.0357 67.1415 24.4268 67.3333 23.2696 67.1628C21.9652 66.9497 20.9132 65.8839 20.1348 63.9655C19.4825 62.3455 19.4194 61.0026 19.8823 59.0202C20.4293 56.6329 21.1867 55.3539 23.2275 53.2863C24.4478 52.0713 25.3946 50.8776 25.8364 50.0463C26.4466 48.874 26.5097 48.5756 26.5097 46.9556C26.5097 45.4208 26.4466 45.0798 26.0679 44.6748C25.3315 43.8861 25.1421 44.2059 25.2053 46.0603C25.2473 47.6803 25.2263 47.8082 24.4478 49.1298C23.2907 51.1334 23.0172 51.0055 23.1013 48.405C23.1434 46.5079 23.2276 46.1029 24.0271 44.1419C25.5629 40.3051 27.9614 37.4488 31.8116 34.8483C34.7782 32.8233 35.7881 32.2904 38.0183 31.523C38.923 31.2033 39.7646 30.8836 39.8698 30.777C40.0802 30.6065 40.6482 30.4573 43.1309 29.8391C44.5826 29.4981 47.6333 29.4341 48.9588 29.7538ZM16.516 65.0739C17.3996 65.7133 18.8724 69.1665 18.8934 70.6373C18.9145 71.298 19.1459 71.9588 19.714 72.982C20.5135 74.3675 20.5345 74.3888 22.2808 75.0922C23.6904 75.6677 24.0691 75.753 24.2164 75.5185C24.532 75.0496 24.3216 74.6233 23.6273 74.2822C23.1644 74.0691 22.933 73.8133 22.933 73.4722C22.933 73.0672 23.0382 73.0033 23.8587 73.0033C24.8686 73.0033 25.1421 73.2165 25.3736 74.1757C25.4577 74.538 25.605 74.943 25.7312 75.0709C26.0048 75.4546 28.9924 75.412 31.7485 75.0283C32.9478 74.8578 33.9997 74.7512 34.0839 74.8151C34.2943 74.943 34.7782 77.0746 34.6309 77.2025C34.5889 77.2664 33.8525 77.3943 32.9899 77.5009C31.3909 77.6927 29.1396 78.2896 27.1409 78.993C25.8575 79.4619 21.1026 82.0411 19.4615 83.1495C18.0729 84.1087 17.2734 84.1087 15.6533 83.1069C14.1806 82.2116 13.0445 81.1459 13.0445 80.6982C13.0445 80.5064 13.2969 79.9735 13.5704 79.5046C14.2227 78.4388 14.2227 78.0338 13.5915 76.7548C13.2969 76.1793 13.1286 75.5612 13.1917 75.3693C13.2549 75.1775 13.9702 74.3462 14.7697 73.4935C15.8427 72.3425 16.2214 71.8309 16.1583 71.4686C16.0321 70.488 15.3798 70.7865 13.3811 72.7688C12.3081 73.8346 11.3403 74.7085 11.214 74.7085C11.1088 74.7085 10.4145 74.0904 9.72023 73.3443C8.05811 71.5965 8.03707 71.2554 9.46775 69.1238C10.7932 67.1202 11.3613 66.566 13.0655 65.6494C14.391 64.9247 15.9689 64.6689 16.516 65.0739ZM81.6541 67.1628C82.0539 67.3973 82.8323 68.2712 83.4214 69.1878C84.284 70.4881 84.4523 70.9144 84.4523 71.6817C84.4313 73.1738 83.7791 73.6641 81.591 73.8559C78.1616 74.1757 77.0885 74.5167 75.5947 75.7104C74.2903 76.7549 73.7643 77.5862 74.0589 78.119C74.1851 78.3535 74.3955 78.5454 74.5217 78.5454C74.6269 78.5454 75.2791 78.0338 75.9314 77.4156C77.341 76.1154 78.5613 75.6038 79.1294 76.1154C79.7606 76.6909 79.8237 77.7993 79.2766 78.8864C78.7717 79.9522 75.6368 83.1282 74.7952 83.448C73.9747 83.7677 72.3126 82.8938 69.4933 80.6556C65.9587 77.8633 64.6332 77.3091 60.0887 76.8188C58.7421 76.6696 57.6481 76.4991 57.6481 76.4138C57.6481 76.3285 57.9847 75.1988 58.3845 73.8986C58.9525 72.0867 59.226 71.5112 59.4996 71.5112C64.0651 71.4472 69.0515 71.0636 69.7879 70.7012C69.9982 70.5946 70.6294 70.2749 71.2185 69.9978C71.7866 69.7207 72.6492 69.2517 73.1121 68.9746C74.6059 68.0368 76.0155 67.3973 77.5935 66.9283C79.3398 66.4168 80.4759 66.4807 81.6541 67.1628ZM50.3895 74.7085C50.6209 75.0922 51.3363 74.9217 51.6729 74.3888C51.8622 74.0904 52.0937 73.8559 52.1989 73.8559C52.3882 73.8559 53.4402 76.0514 53.4402 76.4138C53.4402 76.6696 50.7261 76.8188 44.9192 76.9467C42.142 76.9893 39.6594 77.0959 39.4069 77.1812C38.8388 77.3304 38.7967 77.0746 39.1544 75.9662C39.491 74.9643 39.7014 74.7725 40.017 75.1775C40.1643 75.348 40.5851 75.5612 40.9428 75.6251C41.6371 75.753 42.0789 75.4546 42.3524 74.6446C42.5207 74.1757 42.8574 74.1757 43.0257 74.6872C43.0888 74.9004 43.3202 75.2414 43.5306 75.4333C43.9093 75.7743 43.9935 75.7743 44.5826 75.4546C44.9403 75.2841 45.2348 75.0496 45.2348 74.9643C45.2348 74.8578 45.361 74.6233 45.5083 74.4101C45.7608 74.0478 45.845 74.0478 46.413 74.3462C46.7707 74.538 47.1704 74.8364 47.3177 75.007C47.7806 75.5612 48.1383 75.412 48.6011 74.4954L49.043 73.6214L49.6531 74.0691C49.9897 74.3249 50.3264 74.602 50.3895 74.7085Z" fill="#5B4B36"/>
<path d="M56.4699 48.6821C55.7756 48.8953 54.8499 49.2576 54.4291 49.5348C52.788 50.5579 51.3363 53.0518 51.3363 54.8424C51.3363 56.2705 52.1147 57.4429 53.6085 58.3168C55.5021 59.4465 56.6382 59.5318 58.9105 58.7431C61.3931 57.9118 62.6765 56.505 63.0342 54.2881C63.4129 51.9221 61.2669 48.9166 58.9736 48.6182C58.6369 48.5756 58.2372 48.4903 58.0689 48.4263C57.9006 48.3624 57.1852 48.4903 56.4699 48.6821ZM32.1693 48.7887C31.0332 49.1511 30.402 49.6626 29.4552 50.9203C28.1298 52.6895 27.5827 55.4179 28.277 56.7821C28.6978 57.5708 30.6124 58.9989 31.6854 59.3186C32.8847 59.681 36.251 59.6384 37.0926 59.276C38.8599 58.5086 39.7435 56.2705 39.5331 53.0945C39.4279 51.5811 39.3227 51.1334 38.9861 50.8563C38.7757 50.6645 38.418 50.2595 38.2287 49.9611C37.6606 49.0232 36.2931 48.4903 34.4837 48.5116C33.621 48.5329 32.5901 48.6395 32.1693 48.7887ZM44.0356 58.7431C42.8994 59.3186 41.9947 60.7255 41.5529 62.6439C41.1532 64.4131 41.2584 64.8394 42.1841 65.2444C42.9626 65.5641 43.2992 65.5002 44.3722 64.7541C45.2138 64.1786 45.7818 64.136 47.1494 64.6262C49.1482 65.351 50.0318 64.2852 49.3165 61.9831C48.4118 59.0842 46.1395 57.6773 44.0356 58.7431Z" fill="#5B4B36"/>
</svg>
