<svg width="18" height="26" viewBox="0 0 18 26" fill="none" xmlns="http://www.w3.org/2000/svg">
<path fill-rule="evenodd" clip-rule="evenodd" d="M15.9157 0.0228562C16.0942 -0.0232194 16.2848 
0.00096845 16.4448 0.0899796L17.6518 0.761214C17.8118 0.850236 17.9285 0.996791 17.9763 
1.16867C18.0241 1.34061 17.999 1.52372 17.9066 1.67787L14.7707 6.90982C15.8035 7.87172 
15.791 10.5775 14.3973 12.9027L7.4287 24.5287C7.24389 24.837 6.93967 25.0621 6.58267 
25.1543C6.22563 25.2464 5.84498 25.1981 5.52486 25.02L0.696949 22.3351C0.37692 22.1571 
0.143137 21.864 0.0474559 21.5202C-0.0482119 21.1763 0.00201421 20.8096 0.186827 20.5013L7.1554 
8.87528C8.5491 6.55009 10.9756 5.18683 12.3568 5.56736L15.4926 0.3354C15.585 0.181301 15.7372 
0.0689728 15.9157 0.0228562ZM5.78891 20.409L5.78455 20.4058C5.69428 20.5183 5.57555 20.6076 
5.43667 20.6591C6.08299 20.9248 6.6383 20.9468 6.90279 20.6612C6.99538 20.5612 7.04474 20.4304 
7.05523 20.2784C6.99178 19.9734 6.87826 19.6453 6.7166 19.3161C6.70141 19.2852 6.68522 19.2546 
6.66923 19.2238L5.78891 20.409ZM3.66621 16.8289C3.62287 16.8313 3.58194 16.836 3.54318 16.843C3.27117 
16.8924 3.10873 17.056 3.02652 17.3386C2.93257 17.6616 2.98432 18.1525 3.27695 18.7167C3.49979 
19.1464 3.84972 19.562 4.21499 19.8489C4.58018 20.1357 4.95737 20.2782 5.19658 20.248H5.19767C5.29147 
20.2361 5.35924 20.2048 5.40727 20.1457L5.40182 20.1421L5.44538 20.0828C5.46038 20.0514 5.47307 
20.015 5.48294 19.9727C5.5245 19.7945 5.48745 19.5109 5.29838 19.1824C5.04418 18.7407 4.6844 
18.4874 4.31462 18.476L3.71902 18.4582L4.16381 18.0759L5.02835 17.336C4.53992 16.9965 4.04514 
16.808 3.66621 16.8289ZM6.65345 14.4775C6.61906 14.4843 6.58727 14.4947 6.55654 14.5068C5.71471 
15.1582 4.73 15.745 3.5949 16.3753C3.60948 16.374 3.62417 16.3724 3.63899 16.3716C3.91055 16.3567 
4.18897 16.4078 4.46651 16.509L5.34357 15.9594L5.08388 16.8147C5.25707 16.9218 5.42818 17.0444 
5.59455 17.1797C6.21808 17.6867 6.78191 18.3776 7.14615 19.12C7.26499 19.3621 7.36226 19.6057 
7.43469 19.8447C7.75862 18.5888 8.17475 17.5074 8.73531 16.5787C8.82855 16.0299 8.47774 15.4167 
7.96768 14.9861C7.68239 14.7453 7.35423 14.5698 7.06993 14.5005C6.91 14.4615 6.77067 14.4541 
6.65345 14.4775ZM4.81875 18.1284C5.18519 18.2807 5.49592 18.5805 5.71432 18.9601C5.80919 
19.1248 5.87762 19.2871 5.92066 19.4435L6.41118 18.7833C6.12796 18.352 5.77599 17.952 5.40237 
17.6286L4.81875 18.1284ZM8.02647 13.1811C8.00001 13.1867 7.97555 13.195 7.95298 13.2047C7.69535 
13.501 7.41706 13.778 7.11892 14.0417C7.14144 14.0463 7.16407 14.0509 7.18643 14.0564C7.56683 
14.1491 7.94681 14.3602 8.28017 14.6416C8.68385 14.9824 9.02789 15.4397 9.1654 15.9348C9.38138 
15.6424 9.61536 15.3663 9.86988 15.1073C9.94508 14.9324 9.93297 14.7378 9.8481 14.5163C9.74527 
14.248 9.52853 13.9604 9.26557 13.7244C9.0026 13.4886 8.69279 13.304 8.4288 13.222C8.2638 13.1709 
8.13003 13.1595 8.02647 13.1811ZM10.8689 9.06407C10.7693 9.06641 10.6741 9.07412 10.5842 
9.08766C10.1916 9.14667 9.90291 9.31179 9.8285 9.57536C9.46455 10.8668 8.97023 11.8794 8.33461 
12.7307C8.41603 12.7432 8.49625 12.7619 8.5747 12.7863C8.92883 12.8961 9.28371 13.114 9.59059 
13.3893C9.89745 13.6647 10.1565 13.9972 10.2945 14.3574C10.3296 14.4488 10.3564 14.5433 10.3729 
14.639C11.2491 13.8927 12.3356 13.299 13.6944 12.8298C14.0574 12.7044 14.1685 12.0417 13.9862 
11.3248L13.0994 11.4428L13.7625 10.7191C13.5976 10.3851 13.3654 10.0686 13.0607 9.82025C12.5942 
9.44009 12.0148 9.20822 11.4748 9.11336L10.8885 9.59529L10.8689 9.06407Z" fill="#372D20"/>
</svg>
